/* XPM */
static char *e2d3c046849d462cd5c071391feeab3b78tixMKF42nsBpMI[] = {
/* columns rows colors chars-per-pixel */
"64 64 190 2 ",
"   c None",
".  c #69493E",
"X  c #63483F",
"o  c #0C374F",
"O  c #0D3750",
"+  c #0D3952",
"@  c #133D54",
"#  c #2B3F4D",
"$  c #2B404E",
"%  c #194A65",
"&  c #1E516C",
"*  c #1E5C7D",
"=  c #235773",
"-  c #255A76",
";  c #2A5B76",
":  c #2D5E79",
">  c #355E76",
",  c #335F78",
"<  c #3B6177",
"1  c #36627B",
"2  c #3C647A",
"3  c #376077",
"4  c #5A4946",
"5  c #5F504D",
"6  c #7D5449",
"7  c #7B5247",
"8  c #72635F",
"9  c #455E6D",
"0  c #41667B",
"q  c #44697E",
"w  c #496A7D",
"e  c #786764",
"r  c #81574B",
"t  c #835C51",
"y  c #8A655A",
"u  c #896256",
"i  c #836F69",
"p  c #836B66",
"a  c #976F66",
"s  c #85716B",
"d  c #A57268",
"f  c #B07F74",
"g  c #AF7D73",
"h  c #BE877E",
"j  c #256485",
"k  c #226F97",
"l  c #226F98",
"z  c #26729A",
"x  c #2A769E",
"c  c #2C7296",
"v  c #356F8E",
"b  c #2D7BA4",
"n  c #307EA7",
"m  c #317FA8",
"M  c #4B7A93",
"N  c #417592",
"B  c #537E96",
"V  c #717C84",
"C  c #3D82A4",
"Z  c #3381A9",
"A  c #3B84AA",
"S  c #3C8CB5",
"D  c #3D8EB8",
"F  c #3E91BC",
"G  c #5C8398",
"H  c #628599",
"J  c #6B8B9B",
"K  c #67899A",
"L  c #778893",
"P  c #458AAE",
"I  c #4A8CAF",
"U  c #4084A6",
"Y  c #418EB6",
"T  c #4F8FB0",
"R  c #508FB0",
"E  c #4691B7",
"W  c #4493BC",
"Q  c #4994BA",
"!  c #4C94BA",
"~  c #5599BB",
"^  c #5C9CBD",
"/  c #5696B8",
"(  c #729AB1",
")  c #7099AF",
"_  c #4D9CC4",
"`  c #4B9FC8",
"'  c #4698C2",
"]  c #4EA1CA",
"[  c #52A4CE",
"{  c #56ACD6",
"}  c #58ADD7",
"|  c #59AED8",
" . c #52A6D0",
".. c #5DB1DA",
"X. c #67A6C6",
"o. c #7BABC5",
"O. c #75A9C5",
"+. c #63ADD3",
"@. c #63B3DB",
"#. c #6AB6DC",
"$. c #6EB8DD",
"%. c #6CB1D5",
"&. c #74B7DA",
"*. c #73BADE",
"=. c #7ABBDD",
"-. c #72B4D6",
";. c #7EB2CE",
":. c #6DBAE1",
">. c #73BCE1",
",. c #7BBEE0",
"<. c #7DC1E2",
"1. c #908B8D",
"2. c #B78C82",
"3. c #8299A7",
"4. c #939CA4",
"5. c #88A6B5",
"6. c #C38D84",
"7. c #C69087",
"8. c #C59288",
"9. c #CB9D92",
"0. c #D19C92",
"q. c #D6A198",
"w. c #DEABA1",
"e. c #E8B5AC",
"r. c #EDBBB1",
"t. c #E0ADA3",
"y. c #84AEC5",
"u. c #84B5CF",
"i. c #8CB4CA",
"p. c #8CB3C7",
"a. c #97BACB",
"s. c #86B7D0",
"d. c #8DBED9",
"f. c #87BCD7",
"g. c #95BDD2",
"h. c #A2BFCC",
"j. c #A5B8C3",
"k. c #8FC1DB",
"l. c #9CC1D5",
"z. c #94C4DC",
"x. c #A5C1CD",
"c. c #A9C2CE",
"v. c #B9C3C7",
"b. c #ACC5D2",
"n. c #ADCCDB",
"m. c #A7C7D7",
"M. c #B6CEDA",
"N. c #B6CAD4",
"B. c #BCD2DB",
"V. c #B7D0DB",
"C. c #82C2E3",
"Z. c #8BC6E4",
"A. c #8EC8E5",
"S. c #8ECAE9",
"D. c #93C9E5",
"F. c #9BCCE5",
"G. c #93CCEA",
"H. c #9CCEE8",
"J. c #9DD1EB",
"K. c #A3D2EA",
"L. c #ABD6EC",
"P. c #AED9EF",
"I. c #ABD3E7",
"U. c #B3D7EB",
"Y. c #B4DAEE",
"T. c #B9DDEE",
"R. c #B4D5E5",
"E. c #BBDFF1",
"W. c #B6DDF0",
"Q. c #A4CEE3",
"!. c #BFE0EF",
"~. c #BEE1F3",
"^. c #C6D4DB",
"/. c #D3DBE0",
"(. c #C2E1EF",
"). c #CBE3ED",
"_. c #C3E2F1",
"`. c #CCE6F3",
"'. c #CFE8F4",
"]. c #CCEBFB",
"[. c #D4EBF4",
"{. c #DBEEF6",
"}. c #D3EDF9",
"|. c #DAF1FA",
" X c #E3EDF2",
".X c #E2F1F7",
"XX c #E5F5FB",
"oX c #EBF6FB",
"OX c #F5FAFD",
"+X c #FBFEFF",
/* pixels */
"                                                                                                                                ",
"                                                                                                                                ",
"                                                                                                                                ",
"                                                                                                                                ",
"                                                                                                                                ",
"                                                                                                                                ",
"                                                        . . . . . . . .                                                         ",
"                                                        y y y y y y y y                                                         ",
"                                                    . y 2.9.9.9.9.9.9.2.u .                                                     ",
"                                                    X u 8.e.e.r.r.r.r.9.y X                                                     ",
"                                                + $ 4 t g 9.t.r.r.r.r.9.y 4 $ @                                                 ",
"                                                1 9 5 r d 6.q.w.w.t.t.8.u 5 9 1                                                 ",
"                                            @ > ( 3.8 r d h 7.7.7.7.7.g r 8 3.( 1 @                                             ",
"                                            @ 2 s.m.V e a d d d d d d a p 1.b.g.2 @                                             ",
"                                            @ v i.K.o.H e 6 6 6 6 7 7 p 4.b.(.a.N @                                             ",
"                                            @ 2 i.J.>.^ V e s s s i i 1.N.].|.x.0 O                                             ",
"                                            @ 2 p.J.:.+.i.j.v.v.v.v.v.^. XoXXXc.q @                                             ",
"                                            @ 1 ( u.+.:.J.~.}.|.|.|.|.XX+XoX^.5.2 @                                             ",
"                                                < N _ $.J.~.}.|.|.|.|.XX+X/.J 2                                                 ",
"                                                O ; ^ =.s.i.a.x.x.x.j.B.oXN.w O                                                 ",
"                                                O 0 a.l.G > 2 q 0 0 < K B.N.0 O                                                 ",
"                                                @ w c.M.H > > > 2 0 w J V.c.q @                                                 ",
"                                                O w x.).l.y.y.i.a.b.v./.[.h.q @                                                 ",
"                                                O N x.}.E.P.P.E.[.XX+X+XXXh.q @                                                 ",
"                                                @ q x.'.E.U.P.E.[..X+X+XXXx.q @                                                 ",
"                                                O q x.}.E.L.L.Y.`..XOX+XXXh.0 O                                                 ",
"                                                o q x.'.E.L.L.Y.`..X+XOXXXh.2 O                                                 ",
"                                                2 K m._.K.H.L.Y.(.[.oXOXoXV.J 2                                                 ",
"                                            @ 0 5.n.R.K.C.,.K.U.Y.(.[.XXOX XB.5.0 @                                             ",
"                                            O 0 c.}.E.D.#.@.C.K.K.Y.`..XOX+XoXx.0 O                                             ",
"                                            O 0 x.}.T.F.#.} @.=.H.T.`..X+X+XXXx.0 O                                             ",
"                                            2 J M.}._.L.C.$.#.,.H.T._.}.OX+X.XM.K 0                                             ",
"                                        O 2 5.V.'.{.}._.L.H.H.K.L.Y.U.`.OXOX.X).V.5.< o                                         ",
"                                        > G n.`.R.Q.n.m.z.d.d.d.d.d.d.F.).{.{.[.{.m.G 3                                         ",
"                                    O > ( l.Y.Q.O.I T T I P P I P P P ~ -.H._.[.(.I.l.) 3 o                                     ",
"                                    > M o.z.k.O.C k k l z z z z z l l b W +.H.E.T.P.J.u.B >                                     ",
"                                O > ( o./ I P C x z z z z z z z z z z z b D +.D.!.Y.C.&.u.( 3 o                                 ",
"                                > B s.k.Q b z z z z z z z z z z z z x z z b F %.T.(.A.<.D.u.B 3                                 ",
"                            O , ( u.=.@.[ W b l z z z z z x z x z z x z z z b / R.{.(.K.<.&.u.( > O                             ",
"                            > B s.S.:.| ..[ D Z Z Z x z z z z z z z z z z z b ~ z.(.}.(.A.<.G.u.B >                             ",
"                        O > ) s.=.#.@.| ..{  .] ] W b z z z z z z x z z z n W [ #.Z.).[.(.K.C.&.u.( > O                         ",
"                        > B s.S.+.` ` ` ] ] ] [ ..[ D Z Z Z Z Z Z Z Z m m S [ | #.C.K.(.[.(.A.<.G.u.B >                         ",
"                    O > ( s.=.+.Y m m Z Z n Z D [ } [ ] ] ] [ ] ] ` ` ` ` `  .#.Z.A.,.A.(.[.(.K.<.&.u.( > O                     ",
"                    > B s.A.+.W b z z z z z z n Q ] ] ] ] ] ] [ } @.#.>.*.:.*.,.F.Z.@.$.H.(.[.!.Z.<.G.u.B >                     ",
"                o > ( s.=.+.Y b x z z z z z z x Z Z Z Z Z Z n S [ #.Z.H.H.H.H.A.=.#.| @.#.D.(.[.(.K.C.&.s.( > O                 ",
"                1 B u.Z.+.W b z z x z z z z z z z x b Z n Z n S ] #.Z.H.H.H.H.Z.#.{ | { { *.T.{.{.(.Z.<.G.s.B >                 ",
"            @ 1 ( s.&.+.F b x z z z z z z z z z l b W ] ] _ ] [ { ..#.*.*.*.$.#.| } | } } *.T.{.{.[.(.K.C.&.u.( 1 @             ",
"            @ 2 i.J.%.W b z z z z x n Z Z Z n Z Z S ] ..| | | | | | } { } } { } | | | } } *.K.(.`.{.{.T.*.$.J.i.2 @             ",
"            @ 2 i.F.~ b z l z z z b W ] ] ] ] ' ] ] { | } | | | | } { { { { { { { { { { | ..$.A.T.{. XT.*.$.J.i.2 @             ",
"            @ 1 o.f.Y l l b n Z Z S ] @.$.:.,.=.<.*.<.*.$.&.$.$.$.$.$.$.*.$.*.*.*.$.$.#...{ { *.T.[.(.H.$.$.S.o.1 @             ",
"            @ : _ +.A l l n W [ ] ] { #.Z.K.P.T.!.!.Y.Y.K.D.G.F.F.H.H.H.H.H.H.F.F.H.F.Z.#.{ { >.!.(.D.$...@.$.^ : @             ",
"            @ - U E A m x n ' [ { ..#.<.K._.}.[.`.'.'.(.T.L.P.L.H.F.F.H.F.D.k.z.K.P.U.K.<.$.*.k.L.K.*.{ ] ] Q C - @             ",
"                = v E ' Z b b D  .#.Z.L.(.[.}.`.!.Y.Y.Y.P.P.U.J.,.$.$.$.$.+.T ^ z.U.Y.L.J.K.U.P.Z.:.@. .D x j ;                 ",
"                O = U Y c j j x ' :.S.J.Y.~.`.`.!.Y.Y.Y.T.Y.Y.H.,.$.#.$.&.+.! ^ z.P.K.G.J.J.Y.F.X.E E P c * % @                 ",
"                    : ; & % % j ! :.:.>.*.A.L.~.`.`.`.`.'.(.Y.K.H.H.F.F.H.D.z.z.L.K.C.$.:.<.<.X.v - - = & %                     ",
"                    @ @ @ @ @ = U Q E E E ~ O.g.I.!.!.!.!.Y.K.J.H.H.H.H.H.H.H.F.s.O.~ E E W Q C = @ @ @ @ @                     ",
"                                ; ; ; - - : 1 M X.<.<.<.<.>.>.>.>.:.>.>.>.>.>.X.M 1 - - - - ; -                                 ",
"                                @ @ @ @ @ @ O - A E W W E E E W E E E Q E E W A = @ @ @ @ @ @ @                                 ",
"                                                = - ; ; - - ; ; - ; - ; - ; - -                                                 ",
"                                                @ @ @ @ @ @ @ @ @ @ @ @ @ @ @ @                                                 ",
"                                                                                                                                ",
"                                                                                                                                ",
"                                                                                                                                ",
"                                                                                                                                "
};
