/* XPM */
static char *_8febb3c509b4bc8ae1c0bf7380807e0IhN25lRfQRmOdVbr[] = {
/* columns rows colors chars-per-pixel */
"64 64 183 2 ",
"   c None",
".  c #0F3951",
"X  c #143D55",
"o  c #164159",
"O  c #1B4359",
"+  c #1B4056",
"@  c #254457",
"#  c #2A4A5B",
"$  c #274658",
"%  c #324956",
"&  c #3D4E59",
"*  c #334B58",
"=  c #1A4760",
"-  c #1B4964",
";  c #1A4D69",
":  c #174863",
">  c #1E516D",
",  c #1E5C7D",
"<  c #2D4F63",
"1  c #2E5063",
"2  c #22546F",
"3  c #2C576E",
"4  c #345365",
"5  c #375769",
"6  c #3A586A",
"7  c #38576A",
"8  c #215673",
"9  c #255976",
"0  c #2C5A73",
"q  c #265B78",
"w  c #2C5E79",
"e  c #315C74",
"r  c #36627A",
"t  c #3A647B",
"y  c #3C6074",
"u  c #455158",
"i  c #4C5559",
"p  c #575859",
"a  c #5C5C5B",
"s  c #50575B",
"d  c #435762",
"f  c #596368",
"g  c #586267",
"h  c #446375",
"j  c #43667A",
"k  c #44697D",
"l  c #496A7D",
"z  c #526D7E",
"x  c #636261",
"c  c #6E6E6E",
"v  c #706F6F",
"b  c #70706F",
"n  c #717070",
"m  c #7F7F7F",
"M  c #216589",
"N  c #346F8F",
"B  c #2B7196",
"V  c #397C9F",
"C  c #306E90",
"Z  c #2A78A1",
"A  c #3B7EA0",
"S  c #307FA8",
"D  c #4C6D80",
"F  c #456B80",
"G  c #506F81",
"H  c #467994",
"J  c #527E96",
"K  c #507082",
"L  c #697A84",
"P  c #677983",
"I  c #757F85",
"U  c #3383AB",
"Y  c #3F84A7",
"T  c #3E8EB7",
"R  c #768086",
"E  c #788187",
"W  c #4086AB",
"Q  c #438FB6",
"!  c #4691B7",
"~  c #4692B8",
"^  c #4993B9",
"/  c #5599BB",
"(  c #599BBD",
")  c #6B95AC",
"_  c #7F9FB0",
"`  c #4D9AC1",
"'  c #4596C0",
"]  c #549FC5",
"[  c #51A4CE",
"{  c #5EA2C5",
"}  c #5AAFD9",
"|  c #55AAD4",
" . c #5CB2DC",
".. c #76A8C2",
"X. c #79AAC5",
"o. c #61B4DD",
"O. c #6AB6DD",
"+. c #6BB8DF",
"@. c #72B8DB",
"#. c #61A1C1",
"$. c #5EB5E0",
"%. c #6EBBE1",
"&. c #63B7E1",
"*. c #72BCE1",
"=. c #78BFE1",
"-. c #79C0E4",
";. c #898989",
":. c #858F95",
">. c #879096",
",. c #889196",
"<. c #8E969A",
"1. c #8F999F",
"2. c #969696",
"3. c #989797",
"4. c #989897",
"5. c #919A9F",
"6. c #9B9B9B",
"7. c #91A8B4",
"8. c #A4A5A6",
"9. c #ABABAB",
"0. c #B0AEAD",
"q. c #A3ADB3",
"w. c #ACB6BC",
"e. c #B7B7B7",
"r. c #B9B9B9",
"t. c #87B0C7",
"y. c #89B1C7",
"u. c #84B3CC",
"i. c #8AB3C9",
"p. c #9DBCCB",
"a. c #92B8CB",
"s. c #8DB7CD",
"d. c #B3BDC3",
"f. c #A0BDCC",
"g. c #92C4DF",
"h. c #A6C1CD",
"j. c #ABC3CF",
"k. c #BAC8CF",
"l. c #AAC5D1",
"z. c #BFCCD3",
"x. c #B2C8D3",
"c. c #81C3E4",
"v. c #8AC6E5",
"b. c #8CC8E7",
"n. c #8ECAE9",
"m. c #9ACEE9",
"M. c #93CCEA",
"N. c #9DD1EC",
"B. c #A2D3EC",
"V. c #AED8EF",
"C. c #B2DAEF",
"Z. c #B8DEEF",
"A. c #A7D7F0",
"S. c #B3DBF1",
"D. c #B9DEF1",
"F. c #BDE1F4",
"G. c #C0CACF",
"H. c #C0CAD0",
"J. c #CAD2D6",
"K. c #C7D2D8",
"L. c #D3D2D2",
"P. c #DEDEDE",
"I. c #D8D6D6",
"U. c #E0E0DF",
"Y. c #C5E4F3",
"T. c #C8E5F3",
"R. c #CDEAF7",
"E. c #D2EBF6",
"W. c #D3ECF8",
"Q. c #DBEFF8",
"!. c #D8EEF7",
"~. c #DEF1FA",
"^. c #E4E3E3",
"/. c gray91",
"(. c #EBEAEA",
"). c #EDECEB",
"_. c #E3F4FB",
"`. c #EBF7FD",
"'. c #EDF9FD",
"]. c #F4FBFE",
"[. c #F9F9F9",
"{. c #FBFBFA",
"}. c #FCFCFC",
/* pixels */
"                                                                                                                                ",
"                                                                                                                                ",
"                                                                                                                                ",
"                                                                                                                                ",
"                                                                                                                                ",
"                                                                                                                                ",
"    o + X X X X X X o o                                 o + o X X X o o                                 o + o X X X X X + o     ",
"    o = e t t r w 8 - +                                 + = e r w 8 - +                                 + = e t t r w 8 = o     ",
"    X e ) i.i.X.( V > @ u a a a p a a a a a p a a a a u O e ) X.( A 8 @ u a a a a a a a p a a a a a a u @ w ) i.i.X.( A 8 X     ",
"    X t i.S.S.N.=.^ 9 # f n n c c c c c c c c c c c b g # t s.A.-.^ 8 # g v v v c c c c c c c c c v c g # t i.F.S.N.*.^ 9 X     ",
"    X t i.S.C.m.*.~ 9 5 R 6.2.2.2.2.2.2.2.2.2.2.2.2.6.R 4 t i.N.-.~ 9 4 R 4.2.2.2.2.2.2.2.2.2.2.2.2.6.I 4 r y.S.S.N.%.~ q X     ",
"    X t t.S.Z.B.*.! 8 6 1.r.r.e.e.e.e.e.e.e.e.e.e.r.r.5.6 t a.B.%.~ 9 6 5.r.r.e.e.e.e.e.e.e.e.e.e.r.r.1.6 r y.C.D.B.*.! 9 o     ",
"    X t t.D.T.C.@.Q 8 h q.I.I.L.L.L.L.L.L.L.L.L.L.I.L.q.h t f.S.-.! 8 h q.I.I.L.L.L.L.L.L.L.L.L.L.I.I.q.h r t.D.T.C.@.Q 9 X     ",
"    X t i.T.Q.T.b./ 0 l d.).(././././././././././.(.).d.h k x.R.n./ 0 j d.(.(././.^./././././././.(.(.d.h r i.Y.Q.T.n.( w X     ",
"    X t p.Q.]._.S...w l z.}.{.[.[.[.[.[.[.[.[.[.[.{.}.z.l l z._.S...w l G.}.}.[.[.[.[.[.[.[.[.[.{.{.}.k.l t p.!.]._.S.X.r X     ",
"    X l j.`.]._.S...e l G.}.{.[.[.[.[.[.[.[.[.[.[.}.}.k.l l H.`.F...w l G.}.{.[.[.[.[.[.[.[.[.[.[.{.}.G.l j j.`.[._.C.X.r X     ",
"    . D z.].'.Y.v./ 9 h d.)./.^./.^.^.^./.^./.^./.(.(.d.h k j.R.b./ 0 j d.(././.^.^./.^.^./.^./././.(.w.h k z.}.`.Y.b./ q X     ",
"    . D z.]._.Z.=.Q 8 h w.^.P.P.P.P.P.P.P.P.P.P.P.P.P.w.h j j.F.-.Q 8 h w.U.P.P.P.P.P.P.P.P.P.P.P.P.^.w.h l z.].~.F.=.! 9 +     ",
"    X k j._.~.D.=.~ 8 l w.U.P.P.P.P.P.P.P.P.P.P.P.P.U.w.h k h.F.-.Q 8 h w.^.U.P.P.P.P.P.P.P.P.P.P.U.^.w.h j j._.!.Z.=.! 9 o     ",
"    X k h.!.E.C.=.Q 8 h w.^.^.P.P.P.P.P.P.P.P.P.P.P.^.w.h t f.S.-.! 0 j w.U.P.P.P.P.P.P.P.P.P.P.P.U.U.w.h j f.!.E.C.=.! 9 X     ",
"    X k h.!.Y.N.@.~ 8 h w.U.U.P.P.P.P.P.P.P.P.P.P.U.^.w.h r a.A.=.~ > h w.^.P.P.P.P.P.P.P.P.P.P.P.P.^.w.h j h.!.Y.B.@.^ 9 o     ",
"    . j p.T.D.m.%.! 8 h e.^.^.P.P.P.P.P.P.P.U.P.P.U.^.w.h r t.N.*.~ 9 h w.^.^.P.P.P.P.P.P.P.P.P.P.^.U.w.h t f.T.C.m.%.! 9 X     ",
"    X t i.D.C.m.%.Q 8 h w.^.U.P.P.U.P.P.P.P.U.P.P.^.^.w.h t i.N.*.~ 8 h w.^.^.P.P.P.P.P.P.P.P.P.P.^.^.w.h r i.D.Z.M.*.! q X     ",
"    X t y.C.C.m.%.~ 8 h q.I.L.L.L.L.L.L.L.L.L.L.L.I.I.q.h r X.n.%.~ 9 h q.I.I.L.L.L.L.L.L.L.L.L.L.L.I.q.h r y.C.Z.m.@.^ q X     ",
"    X t y.C.Z.m.*.~ 8 6 1.r.r.e.e.e.e.e.e.e.e.e.e.r.r.5.6 w ] %.&.^ 8 6 5.r.r.r.e.e.e.e.e.e.e.e.e.e.r.1.6 r t.S.C.m.%.Q q X     ",
"    X t y.V.m.v.O.~ 9 6 :.9.9.9.9.8.9.9.9.8.9.8.<.:.:.L < > V ~ ^ A > 1 L >.>.5.8.9.8.9.9.9.9.8.9.9.9.:.6 r t.V.B.v.%.^ q X     ",
"    X t y.B.c.O. .^ 9 6 :.9.9.9.9.9.8.9.9.9.9.<.z 5 7 < + o > 8 , > o O 1 6 6 z <.9.9.9.8.9.9.9.9.9.9.:.5 r i.B.=.O. .^ w X     ",
"    X t i.N.+.} } ^ 8 6 ,.0.9.9.9.9.9.9.9.0.0.,.5 < 6 D G G G G l G G D F e O 6 >.0.0.9.9.9.9.9.9.9.0.>.6 r i.m.@.} } ^ q X     ",
"    X t i.N.@.} } ^ 9 6 ,.0.0.9.9.9.0.9.9.0.0.:.5 e 7.J.J.J.J.J.J.J.J.H.x._ e 5 >.0.0.9.0.9.9.9.0.0.0.:.5 r i.B.@.} } ^ q X     ",
"    X r X.b.O.} } ^ 9 1 L ,.,.:.:.,.:.:.:.,.:.P < D K.}.}.'._.~.~._.'.'._.l.k 1 L ,.>.:.:.>.>.:.:.:.,.L < r X.v.O.} } ^ 0 X     ",
"    X w ( O.o.}  .^ 9 O 1 6 6 6 6 7 7 7 6 7 6 < X l x._.W.D.M.c.v.M.D.E.!.l.F + < 6 6 6 6 6 6 6 6 6 6 4 + w ( O.o.}  .^ q +     ",
"    o 9 ^ } } } } ` N 9 9 9 0 8 9 9 9 9 9 9 9 2 = F j.E.D.v.{ Q ! { v.S.W.l.F o > 9 8 9 9 9 9 8 9 8 8 0 9 C / } }  . .^ q X     ",
"    X 9 ^  .} } } | ` ^ ^ ^ ~ ^ ^ ^ ^ ^ ^ ~ ~ A > k h.W.F.s.H > > H i.F.W.h.k > A ~ ~ ^ ^ ^ ^ ^ ^ ^ ^ ! ^ ` [ } } }  .^ q X     ",
"    X 9 ^  . .} } }  . . . . . . . . . . .$.$.^ 8 k h.W.F.t.t X . N i.F.W.h.k 8 ^ $.$. . . .$. . . . . . . . . .}  .$.^ q o     ",
"    X w ^  . .} o. . . . .$.$. . . . .$. .$.&.^ 8 k h.W.F.t.t . . t y.F.W.h.k 8 ^ $.o. . . . . . . . . .o. . . . .o. .^ q o     ",
"    X 0 A ^ ^ ^ ^ ^ ^ ^ ^ ^ ^ ^ ^ ^ ^ ^ ^ ^ ^ V > k h.W.F.t.t . . y y.F.!.j.k > Y ^ ^ ^ ^ ^ ^ ^ ^ ^ ^ ^ ^ ^ ^ ^ ^ ^ ^ H 2 X     ",
"    + = 8 9 q 3 q q q q 9 9 q 9 9 9 9 q q q q > o k h.W.F.i.t . . h t.Y.W.l.k o 2 q q q q q q q w 9 9 9 9 w 9 9 0 9 9 8 O +     ",
"    o O o : ; ; = - O X @ # $ $ $ $ $ $ @ @ $ @ o F l.W.S.X.J r r Y u.B.S.a.t o O $ $ @ @ $ $ $ $ $ $ @ X o = : : ; ; : O o     ",
"    o - M M M M M q = @ & i i i i i i i i i i & + k l.Y.v.@.X.i.i.i.@.@.-.#.w @ & s i s i i i i i i i & $ : M M M M M q ; o     ",
"    X > B U U U Z M ; $ i a a x a x a a x a a i % h 7.g.O.%.n.A.B.b.%.| ^ Y 0 * s a a a a a a a a a x i $ > B S U S Z M ; o     ",
"    X 9 Q [ [ ' U M ; @ i a a a a a a a a a a a s d h H ] O.%.*.*.%.&.` C 3 u s a a a a a a a a a a a i $ 8 Y [ [ ^ U M ; X     ",
"    X w ~ }  .[ T B ; # f n n n n n n n n n c c x s % 3 Y ^ ~ ~ ^ ^ ~ Y 3 % i x c n n n n n n n n n n f # q ^  . .[ T B ; o     ",
"    X 9 ^ }  .} | Y 8 4 R 6.6.2.2.2.2.2.2.6.2.;.x a i d 3 9 9 9 q 8 q 3 d s p c ;.2.2.2.6.2.2.2.2.6.6.R 5 8 ~  . .} [ Y 9 X     ",
"    X w ( O.o.}  .^ 9 6 >.0.9.9.9.9.0.0.9.0.q.6.m c x i % @ $ @ @ @ @ * s x x ;.6.0.0.9.9.9.9.9.9.9.0.>.5 w ( +. . . .^ q X     ",
"    X 6 X.v.O.}  .~ 8 6 ,.9.9.9.9.9.9.9.9.9.9.9.6.;.c p i i u i i i u i p c ;.6.q.9.9.9.9.9.9.9.9.9.e.:.6 r X.b.O.}  .^ q X     ",
"    X N i.B.c.O. .~ 8 6 ,.9.9.9.8.9.9.9.9.9.9.9.0.6.m v v n v n n b b b c m 6.9.9.9.9.9.8.9.9.9.9.9.9.:.6 r y.B.c.O. .^ q X     ",
"    X e y.V.B.v.%.! 8 6 >.9.9.9.9.9.9.9.9.9.9.9.9.8.6.3.3.3.3.3.4.2.6.6.2.6.8.9.9.9.9.9.9.9.9.9.9.9.9.:.4 t y.V.B.v.+.^ q X     ",
"    X t t.C.Z.m.%.~ 9 5 ,.9.9.9.9.9.9.8.9.9.9.9.9.9.9.9.0.9.9.9.9.9.9.9.9.9.9.9.9.9.9.9.9.9.9.8.9.9.9.:.6 r t.C.C.m.@.^ q +     ",
"    X t t.V.C.m.*.~ 9 6 :.9.9.9.8.9.9.9.9.9.9.9.8.9.9.9.9.9.9.9.9.9.9.9.9.9.9.9.9.9.9.9.8.9.9.9.9.9.9.:.6 t t.D.V.m.@.^ q X     ",
"    X t t.D.V.m.%.~ 8 6 :.0.9.9.9.9.9.9.9.8.9.9.9.9.9.9.9.9.9.9.9.9.8.9.9.9.9.8.9.8.9.9.9.9.9.9.9.9.9.:.6 t t.V.V.m.*.! 9 X     ",
"    X t t.V.V.m.*.~ 8 6 :.9.9.9.9.9.9.9.9.9.9.9.9.9.9.9.9.8.9.9.9.9.9.9.9.9.9.9.9.9.9.9.9.9.9.8.9.9.9.:.5 e t.V.C.m.*.~ w X     ",
"    X t t.D.V.m.%.! 8 6 :.0.9.9.9.9.8.9.9.9.8.9.9.9.9.8.9.q.9.9.9.9.9.9.9.8.9.9.9.9.8.9.9.9.9.9.9.9.9.:.5 t t.S.V.m.%.~ q X     ",
"    X t t.S.V.m.%.~ 9 7 :.9.0.9.9.9.9.q.9.9.9.9.9.8.9.9.9.9.9.9.9.8.9.9.q.9.9.9.8.9.9.9.9.9.9.9.9.9.9.,.5 r t.S.C.m.*.! q X     ",
"    X t t.S.S.m.%.~ 8 6 ,.0.9.9.9.9.9.9.9.9.9.q.9.9.9.9.9.9.9.9.9.9.9.9.9.9.9.9.9.9.9.9.9.q.9.9.9.0.9.,.6 r t.V.C.m.+.~ q X     ",
"    X t t.S.V.m.@.~ 8 6 ,.0.0.9.9.0.9.9.9.9.9.0.9.9.9.9.9.9.0.9.9.9.9.9.9.0.0.9.0.9.9.9.0.9.9.0.9.9.0.,.6 r y.S.C.m.*.~ 0 X     ",
"    X t t.S.S.m.*.~ 9 7 I 3.2.2.3.3.3.2.2.2.2.2.3.3.3.3.3.2.2.2.3.2.3.2.2.2.2.2.2.2.2.2.2.2.2.2.4.4.6.R 4 r i.D.D.m.*.^ w X     ",
"    X r i.S.S.N.*.^ 9 # f n n v n c n c c n n n c c n c n c c n n c c n c c n c c c c c n c c n c n n f $ N s.S.S.N.*.^ 9 X     ",
"    X e ) i.i.X.] A 8 $ u a a a a a a a p a a a a a a a a a a a a a a a a a a a a a a a a a a a a a a u @ e ) i.i.X.( A 8 X     ",
"    + < e N t r w 8 O O                                                                                 X $ e t t r w 8 = o     ",
"    X X X X X X X X X O                                                                                 O X X X X X X X o +     ",
"                                                                                                                                ",
"                                                                                                                                ",
"                                                                                                                                ",
"                                                                                                                                "
};
