/* XPM */
static char *d3d4e19faa324848bc64b451c6d5a920kST7iVJ6HSRJuOLb[] = {
/* columns rows colors chars-per-pixel */
"64 64 170 2 ",
"   c None",
".  c #04131F",
"X  c #1A351C",
"o  c #071623",
"O  c #091723",
"+  c #0B1A25",
"@  c #0E1A29",
"#  c #0C162A",
"$  c #101C26",
"%  c #17242A",
"&  c #1A3527",
"*  c #1C3925",
"=  c #1B392C",
"-  c #362E34",
";  c #273C35",
":  c #3A3638",
">  c #3A3838",
",  c #383536",
"<  c #213D29",
"1  c #453C3B",
"2  c #453A3B",
"3  c #3B7719",
"4  c #3B791B",
"5  c #244727",
"6  c #25423E",
"7  c #2F483A",
"8  c #2D4638",
"9  c #324B3E",
"0  c #356B23",
"q  c #336624",
"w  c #3C7B20",
"e  c #2F6E3E",
"r  c #49403C",
"t  c #444E36",
"y  c #416F28",
"u  c #0E2D4F",
"i  c #05344D",
"p  c #1D334C",
"a  c #123748",
"s  c #0C2E52",
"d  c #3A3C41",
"f  c #343840",
"g  c #0A3C75",
"h  c #1A4B4C",
"j  c #3E4952",
"k  c #374256",
"l  c #225155",
"z  c #2E734B",
"x  c #335162",
"c  c #454344",
"v  c #444E56",
"b  c #444F58",
"n  c #484F57",
"m  c #485057",
"M  c #47515A",
"N  c #49525A",
"B  c #664C45",
"V  c #6B564A",
"C  c #50704D",
"Z  c #55685E",
"A  c #916C58",
"S  c #977259",
"D  c #A66656",
"F  c #B46D5B",
"G  c #AF785F",
"H  c #8E6E61",
"J  c #917A77",
"K  c #8B7F76",
"L  c #B47B62",
"P  c #4B8532",
"I  c #4C8C3A",
"U  c #3B9846",
"Y  c #2E8C6D",
"T  c #618959",
"R  c #6C9F57",
"E  c #4CA55D",
"W  c #6FA156",
"Q  c #5E9C76",
"!  c #5E8E63",
"~  c #709666",
"^  c #7CAC6B",
"/  c #6DB675",
"(  c #B38264",
")  c #BD8566",
"_  c #BF8968",
"`  c #B8937D",
"'  c #89BC72",
"]  c #C08865",
"[  c #C38B6A",
"{  c #C88E6A",
"}  c #DD946F",
"|  c #DF9D74",
" . c #E1886A",
".. c #EA9C72",
"X. c #E39E74",
"o. c #EEA476",
"O. c #EEA679",
"+. c #EEA97E",
"@. c #F1A779",
"#. c #F2A87B",
"$. c #FFAE7C",
"%. c #9BD57E",
"&. c #16548A",
"*. c #09658B",
"=. c #366099",
"-. c #287A96",
";. c #0951A6",
":. c #0552AD",
">. c #0A56AA",
",. c #0457B9",
"<. c #0756B5",
"1. c #006FA4",
"2. c #0070A5",
"3. c #107CAF",
"4. c #1371B4",
"5. c #136AAA",
"6. c #727A81",
"7. c #035FCE",
"8. c #0A70CA",
"9. c #066FD4",
"0. c #0461CF",
"q. c #208096",
"w. c #278A98",
"e. c #1593A2",
"r. c #1B98AB",
"t. c #1288B0",
"y. c #3594BC",
"u. c #25A1B8",
"i. c #6DBE80",
"p. c #6CC083",
"a. c #0385D3",
"s. c #0190D2",
"d. c #3D9AC0",
"f. c #8B8781",
"g. c #BBA693",
"h. c #999FA3",
"j. c #9BA1A5",
"k. c #BCB4AF",
"l. c #F5AE82",
"z. c #EFB38E",
"x. c #EFB795",
"c. c #EFB896",
"v. c #F2B895",
"b. c #F2BB99",
"n. c #F5B792",
"m. c #F3CAB1",
"M. c #F9CFB6",
"N. c #BDC1C4",
"B. c #BFC3C8",
"V. c #C0C3C6",
"C. c #C2C6C9",
"Z. c #CCCFD1",
"A. c #CED1D3",
"S. c #D1D3D5",
"D. c #F6D7C4",
"F. c #F5E4D9",
"G. c #FBE9DE",
"H. c #ECECED",
"J. c #F6EAE2",
"K. c #FBEEE6",
"L. c #FFF2EA",
"P. c #EEF0F1",
"I. c #F7F4F2",
"U. c #FDFDFD",
"Y. c #FCFDFE",
"T. c white",
"R. c #FEFEFF",
"E. c #FDFEFE",
"W. c #F9FAFB",
"Q. c #FDF9F7",
/* pixels */
"                                                                                                                                ",
"                                                                                                                                ",
"                                                                                                                                ",
"                                                                                                                                ",
"                                                                                                                                ",
"                                                                                                                                ",
"                                                                                                                                ",
"                                                                                                                                ",
"                                                                                                                                ",
"                                                                                                                                ",
"                                                                                                                                ",
"                                                                                                                                ",
"                                                                                                                                ",
"                                                                                                                                ",
"                                            O O O O             O O O O                                                         ",
"                                            v M M v             v M M v                                                         ",
"                                        O v h.C.C.h.v O     o v h.C.C.j.v O                                                     ",
"                                        . M V.T.T.V.M .     . M B.T.T.N.n .                                                     ",
"                                        @ N N.T.T.V.v . . o . v V.T.T.N.v .                                                     ",
"                                        b Z Z.T.T.Z.6.v n b v 6.A.T.T.Z.6.j                                                     ",
"                                    O v j.S.H.W.W.H.Z.N.N.N.N.A.H.W.W.H.S.j.j .                                                 ",
"                                    O M C.T.W.W.W.W.Y.Y.Y.T.T.Y.W.W.W.Y.T.A.6.j                                                 ",
"                                    O M V.T.W.W.I.W.Y.Y.Y.Y.Y.Y.W.W.W.W.T.H.A.h.v O                                             ",
"                                    O n N.T.W.W.W.I.J.F.F.F.F.F.F.F.F.F.F.K.T.B.M +                                             ",
"                                    O M N.Y.W.W.Y.J.m.x.v.c.b.c.c.c.c.c.c.m.L.B.M o                                             ",
"                                    O M N.T.W.I.J.D.z...o.o.o.o.o.o.o.o.o.v.D.k.v +                                             ",
"                                    O M N.W.Y.J.m.z.+.o.@.@.O.O.O.o.o.o.@.l.v.` c +                                             ",
"                                    O M N.T.Y.F.x.o.o.| [ [ | O.O.o.+.| [ { X.) r +                                             ",
"                                    O M N.T.T.F.x.o.#.{ V V [ O.@.@.@.[ V V { ) r +                                             ",
"                                    O M N.T.T.F.x.o...F , : ( #.#.@.@.( : : L L 1 +                                             ",
"                                    O M N.W.T.F.c... .A - : ( #.O.#.#.( : - D D : +                                             ",
"                                    O M N.T.W.F.c... .F B V [ O.@.O.#.[ V V F D 2 +                                             ",
"                                    O M N.T.Y.F.c.....} ] [ | @.O.O.O.| [ [ } G 2 +                                             ",
"                                    O M N.Y.Y.J.m.z.O.@.@.@.o.o.o.O.o.O.O.l.n.` c +                                             ",
"                                    o M N.Y.U.L.G.M.z.o.@.o.@.o.o.O.o.o.@.v.D.k.n +                                             ",
"                                    o M N.T.U.U.Y.K.M.b.b.b.b.b.b.b.b.b.b.M.L.C.M O                                             ",
"                                + o o n C.T.T.U.Y.W.K.G.G.G.G.G.G.G.G.G.G.L.U.C.M O                                             ",
"                                7 7 7 Z j.C.V.V.N.N.B.B.V.C.C.V.V.V.C.N.C.C.C.j.b +                                             ",
"                            # 8 T ^ ^ ~ Z v m M m v M M N N m m M M m M N N N m                                                 ",
"                            + 9 ^ %.' ! l i i i i a 6 6 a i i i i a h ; % O O O                                                 ",
"                            + 9 ^ ' C l *.2.2.2.2.-.Q Q -.2.1.1.2.q.Q T ; + + O                                                 ",
"                            @ 7 R R 8 a -.d.d.y.3.w./ p.u.s.s.s.s.u.p.W 9 $ , 2                                                 ",
"                            @ 5 P P = f J g.g.f.x h I E r.s.s.s.s.r.E P < , A S 1 +                                             ",
"                            @ * w w * 2 ) $.l.L 2 X 3 U e.s.s.s.s.e.U 3 * r [ _ r +                                             ",
"                            + < w 4 * 2 ) $.$.) c & 3 U e.s.s.s.s.e.U 3 X r [ _ c +                                             ",
"                            @ = q 0 5 t S ) ) H d h z Y t.a.a.a.a.t.Y e = > A S > +                                             ",
"                                * 5 0 y t 1 1 k &.>.5.4.8.8.9.9.9.8.4.&.a % : 1                                                 ",
"                                + = q q & + + s :.0.,.;.;.;.;.;.;.<.7.:.s + + +                                                 ",
"                                    = * % + $ u :.,.g s u u u u u g ,.:.s $                                                     ",
"                                    @ @ @ + . p =.=.p $ + $ $ $ + p =.=.p +                                                     ",
"                                            + j J J > +         + > J J d +                                                     ",
"                                            + r ] ] r +         + r ] ] r +                                                     ",
"                                                                                                                                ",
"                                                                                                                                ",
"                                                                                                                                ",
"                                                                                                                                ",
"                                                                                                                                ",
"                                                                                                                                ",
"                                                                                                                                ",
"                                                                                                                                ",
"                                                                                                                                ",
"                                                                                                                                ",
"                                                                                                                                ",
"                                                                                                                                "
};
