/* XPM */
static char *e69109cc66c1450bcc0b184834520f7fayrDPagphULuuFAG[] = {
/* columns rows colors chars-per-pixel */
"64 64 184 2 ",
"   c None",
".  c #1C170D",
"X  c #161B0D",
"o  c #1A1B0E",
"O  c #1D1315",
"+  c #111E11",
"@  c #1D141A",
"#  c #151C1C",
"$  c #22120E",
"%  c #241512",
"&  c #291712",
"*  c #241D14",
"=  c #2C1B14",
"-  c #21151A",
";  c #25181A",
":  c #2C1F1C",
">  c #311F16",
",  c #04250A",
"<  c #0C270C",
"1  c #072A0C",
"2  c #0A2C0D",
"3  c #13240E",
"4  c #11290E",
"5  c #07300E",
"6  c #0B320F",
"7  c #0C2516",
"8  c #0B2B14",
"9  c #0E241B",
"0  c #0D2818",
"q  c #1C2512",
"w  c #152C11",
"e  c #1A2A12",
"r  c #12221B",
"t  c #0D3510",
"y  c #0D3A12",
"u  c #123512",
"i  c #113C13",
"p  c #1B3F16",
"a  c #222614",
"s  c #2C2517",
"d  c #242915",
"f  c #2C2A17",
"g  c #20211C",
"h  c #2D231A",
"j  c #2F2F19",
"k  c #312117",
"l  c #342419",
"z  c #39261B",
"x  c #352F1B",
"c  c #3C291C",
"v  c #243317",
"b  c #2D3019",
"n  c #35301B",
"m  c #3A321E",
"M  c #1C1624",
"N  c #1B1824",
"B  c #161D2D",
"V  c #191B2C",
"C  c #171C31",
"Z  c #191B30",
"A  c #221C24",
"S  c #112123",
"D  c #272025",
"F  c #2A2227",
"G  c #25212A",
"H  c #2C252C",
"J  c #30272B",
"K  c #342A2B",
"L  c #3A2C2A",
"P  c #422D1F",
"I  c #452F21",
"U  c #412F29",
"Y  c #443223",
"T  c #4D3525",
"R  c #523625",
"E  c #543826",
"W  c #0F4115",
"Q  c #124416",
"!  c #194517",
"~  c #1A4817",
"^  c #124718",
"/  c #154B19",
"(  c #1B4C19",
")  c #1C541D",
"_  c #1E591F",
"`  c #22541D",
"'  c #245A1F",
"]  c #1F5B20",
"[  c #225D21",
"{  c #295E21",
"}  c #256323",
"|  c #2A6423",
" . c #276825",
".. c #2B6B26",
"X. c #316C26",
"o. c #2E7228",
"O. c #327429",
"+. c #357C2C",
"@. c #3A7E2D",
"#. c #37802E",
"$. c #3A812F",
"%. c #3D8530",
"&. c #3F8831",
"*. c #3F8831",
"=. c #40822F",
"-. c #40832F",
";. c #438631",
":. c #418530",
">. c #418731",
",. c #418A32",
"<. c #428932",
"1. c #448932",
"2. c #458B32",
"3. c #448831",
"4. c #428D33",
"5. c #458D33",
"6. c #478D33",
"7. c #448E34",
"8. c #478E34",
"9. c #428C33",
"0. c #488F34",
"q. c #439034",
"w. c #469135",
"e. c #479235",
"r. c #469235",
"t. c #469135",
"y. c #499035",
"u. c #499135",
"i. c #489336",
"p. c #499236",
"a. c #4B9336",
"s. c #4A9235",
"d. c #4A9737",
"f. c #499637",
"g. c #4C9537",
"h. c #4C9637",
"j. c #4D9637",
"k. c #4C9737",
"l. c #4A9536",
"z. c #4C9738",
"x. c #4B9838",
"c. c #4D9938",
"v. c #4C9838",
"b. c #4E9838",
"n. c #4E9938",
"m. c #4F9A38",
"M. c #4E9A39",
"N. c #4F9A39",
"B. c #4F9B39",
"V. c #4E9B39",
"C. c #4D9A39",
"Z. c #4F9C39",
"A. c #4E9A39",
"S. c #509B39",
"D. c #509C39",
"F. c #519D3A",
"G. c #509C3A",
"H. c #519E3A",
"J. c #509E3A",
"K. c #529E3A",
"L. c #529F3A",
"P. c #529F3B",
"I. c #539F3B",
"U. c #519E3A",
"Y. c #53A03B",
"T. c #53A13B",
"R. c #52A03B",
"E. c #54A13B",
"W. c #54A13C",
"Q. c #54A23C",
"!. c #55A23C",
"~. c #55A33C",
"^. c #56A33C",
"/. c #55A43C",
"(. c #55A43D",
"). c #56A43D",
"_. c #56A53D",
"`. c #57A53D",
"'. c #57A73E",
"]. c #57A63E",
"[. c #57A63D",
"{. c #53A13B",
"}. c #59A93F",
"|. c #5AAB40",
/* pixels */
"                                                                                                                                ",
"                                                                                                                                ",
"                                                                                                                                ",
"                                                                                                                                ",
"                                                                            2 2 2 2 2                                           ",
"                                                                          ~ ' ' { ' ` !                                         ",
"                                  2 4 2 6 2 2 2                         u ' 0.S.k.S.6.` 2                                       ",
"                                ! { | | | | | | (             , ,       | @.I.`.).`.K.@.{ ~                                     ",
"                              , ~ =.K.S.S.m.K.d.| u         6 6 6 2     m.K.K.{.{.{.K.{.2.` , 2 6 6 6                           ",
"                              , ~ 2.`.).).).).{.3...~ , , 6 ( ` ` ( t | K.).K.{.{.P.!.|.s.` 2 ~ ) ` ( 6                         ",
"                              , ~ 2.^.R.{.{.{.{.!.k.| u , i | #.#.| i ` u.).R.K.I.I.K.Z.-.` Q ..#.@.| i 2                       ",
"                        , , , , ~ 2.^.!.{.K.{.P.!.I.3.X.i i O.b.x.X.u ` u.~.!.!.I.~.b.O.` ` | $.d.d.$.} ( 6                     ",
"                      6 y i i i ` ,.R.R.!.R.R.K.I.R.^.u.' ` =.!.^.$.~ ' k.!.K.R.I.).k.{ ~ | &.x.~.!.m.%.' t ,                   ",
"                    6 ( | X.@.@.@.$.5.K.!.K.!.!.!.K.).K.-.$.g.!.!.5...O.k.!.!.R.K.!.S.;.@.4.b.K.{.R.K.x.X.u ,                   ",
"                  1 6 } &.S.I.^.b.&.,.b.K.R.K.R.!.R.!.R.Y.!.Y.Y.!.d.$.4.K.!.R.K.!.!.K.!.!.!.K.!.!.R.R.Z.X.t ,                   ",
"            , , 1 , u X.k.I.!.^.R.b.b.K.K.!.!.R.K.K.!.R.!.!.Y.Y.!.K.K.b.K.K.R.!.K.R.R.!.!.!.R.R.!.R.Z.,.| t ,                   ",
"          ! ~ ~ ! 2 u O.I.^.I.I.!.!.!.R.!.!.K.R.Y.Y.Y.Y.Y.Y.Y.Y.K.!.!.!.K.!.!.R.K.!.!.R.!.R.R.K.K.x.&...( 2 ,                   ",
"        2 ` =.0.=.` u O.I.^.!.I.K.K.R.K.K.R.K.!.Y.Y.Y.Y.Y.Y.Y.Y.R.R.K.R.R.R.K.K.R.R.K.K.K.K.!.!.b.&...Q 2 1 2                   ",
"        2 ' S.}.I.O.{ @.I.!.I.I.R.R.!.!.R.K.R.!.Y.Y.Y.Y.Y.Y.Y.Y.!.K.!.K.!.K.R.!.!.K.R.!.R.!.{.R.m.2.O.` ` ( ~                   ",
"        2 ' k.`.K.b.0.b.^.I.I.!.!.K.K.R.!.!.R.K.Y.Y.Y.Y.Y.Y.Y.Y.!.R.R.K.!.R.K.!.!.R.K.!.R.K.{.P.K.K.j.0.0.6.| u                 ",
"        2 ' b.K.d.m.~.~.R.K.K.!.!.R.R.K.K.K.R.!.Y.Y.Y.Y.Y.Y.Y.Y.K.K.R.!.!.K.R.R.K.K.R.!.{.{.K.{.R.!.!.).).^.$.' !               ",
"        2 { a.u.#.7.I.~.!.!.R.R.K.K.!.!.R.!.R.K.Y.Y.Y.Y.Y.Y.Y.Y.R.!.R.K.R.K.!.K.R.!.R.K.P.{.{.{.!.K.K.!.R.R.K.6.{ 6             ",
"          ( X.@.,.d.K.!.K.R.{.R.R.!.K.R.!.R.!.K.Y.Y.Y.Y.Y.Y.Y.Y.!.R.!.K.R.!.K.!.!.R.!.K.{.{.K.~.K.!.!.R.!.!.^.!.=.{ ~           ",
"            u | m.~.!.R.K.!.P.{.R.K.!.R.K.K.!.R.Y.Y.Y.Y.Y.Y.Y.Y.K.K.!.R.K.!.R.R.K.K.!.R.K.{.{.K.R.K.K.R.R.R.R.R.I.0.' 2         ",
"            , { I.`.!.!.{.K.{.P.!.!.K.R.Y.Y.Y.Y.Y.Y.Y.Y.Y.Y.Y.Y.R.!.K.R.!.!.K.R.K.P.~.~.K.P.~.R.m.5.r.K.!.K.R.!.`.S.' 2         ",
"            y | S.!.K.K.K.P.{.{.K.R.K.!.Y.Y.Y.Y.Y.Y.Y.Y.Y.Y.Y.Y.R.K.!.R.K.R.K.!.~.P.K.P.K.~.K.I.d.&.&.k.R.!.R.R.).k.{ 2         ",
"        2 Q ` @.K.!.K.t.7.m.{.!.R.K.R.!.Y.Y.Y.Y.Y.Y.Y.Y.Y.Y.Y.Y.!.!.K.K.K.!.R.!.~.P.~.P.P.P.~.~.K.r.5.4.d.R.^.R.`.m.{ 2         ",
"        , ( +.r.K.!.K.&.#.r.Z.K.!.!.R.K.Y.Y.Y.Y.Y.Y.Y.Y.Y.Y.Y.Y.K.R.R.!.R.R.R.K.S.K.P.P.~.K.K.P.~.K.r.+.@.r.b.m.I.u.` 2         ",
"        1 ` 5.K.K.!.K.&.+.#.,.m.Y.K.Y.Y.Y.Y.Y.Y.Y.Y.Y.Y.Y.Y.Y.Y.K.!.!.R.!.!.K.r.&.d.~.~.~.P.I.P.~.~.,.[ ) | O.;.r.$.) 2         ",
"        i | b.).R.K.b.4.#.@.&.x.Y.!.Y.Y.Y.Y.Y.Y.Y.Y.Y.Y.Y.Y.Y.Y.R.R.K.K.K.!.K.r.%.;.7.b.m.P.~.~.K.K.%.[ ) ) [ ..o.| ~ 2         ",
"    2 i [ @.K.).R.u.,.5.d.d.d.K.Y.Y.Y.Y.Y.Y.Y.Y.Y.Y.Y.Y.Y.Y.Y.Y.!.K.R.!.K.!.R.K.u.O.} O.,.m.~.~.m.*.%.:.-.-.| Q i Q i           ",
"    2 ! O.,.d.d.,.+.o.4.R.~.!.K.Y.Y.Y.Y.Y.Y.Y.Y.Y.Y.Y.Y.Y.Y.Y.Y.!.R.K.!.R.R.K.~.F.O.[ [ o.%.7.d.7.@.&.m.^.I.@.~ 6 1             ",
"    , ! o.%.$.o.[ ) ) %.{.~.{.{.Y.!.!.R.R.K.K.!.Y.Y.Y.Y.Y.Y.Y.Y.K.R.!.K.R.R.!.!.P.b.&.| ) ) } +.@.+.%.Z.Q.Q.m.&.` 2             ",
"    2 Q ] ....) Q / } ;.P.{.{.{.K.x.b.K.!.!.R.R.Y.Y.Y.^.Y.Y.Y.Y.K.!.R.K.!.K.K.K.{.~.m.O.] ) ) o.@.$.q.Z.Q.{.R.i.| t 1           ",
"    1 6 y ^ / / ^ o.r.S.{.{.{.{.d.$.,.V.Y.K.!.K.Y.Y.R.R.Y.Y.!.Y.R.R.!.!.R.R.R.!.P.{.P.b.,.+.o.O.%.d.Z.{.Q.R.f.$.[ W t 1         ",
"    2 1 , 1 t y / O.{.~.{.P.{.{.b.#.$.b.!.!.R.K.Y.Y.b.s.b.Y.R.R.!.K.K.R.!.R.K.m.d.m.{.).K.r.&.+.#.4.d.d.f.i.&.+. .) y 2         ",
"        2 2 6 6 / O.I.).{.{.{.{.x.#.&.b.!.R.R.!.Y.K.,.$.d.R.R.!.R.K.K.!.K.!.K.7.%.7.P.{.{.K.d.#.+.@.+.#.#.#.+.O.+...! 2         ",
"        , u ~ ) [ %.I.~.{.{.Z.d.5.4.t.K.R.!.!.R.Y.Y.s.,.4.s.V.R.!.!.R.R.R.!.K.d.,.4.r.m.{.).m.%.O.O.o.} } } o.+.#.+.( 1         ",
"        2 ( o.O.+.2.K.I.{.{.x.%.$.x.R.R.R.R.R.R.R.R.R.b.&.$.d.R.K.R.!.K.R.K.K.R.m.,.%.r.{.{.x.%.#.#.o.) ^ / } o.+.o.( 2         ",
"      i ) ..,.r.7.7.7.7.4.q.&.+.$.V.^.R.b.5.d.R.^.R.^.Y.&.#.s.!.R.!.R.K.!.!.R.~.P.,.+.&.4.q.q.q.q.*.@.} / ^ / }  .] Q 2         ",
"    2 ! ..&.Z.R.K.4.@.@.#.@.+.+.&.x.R.R.d.$.4.V.R.V.R.b.&.#.d.R.R.!.K.R.{.{.{.{.Z.&.+.+.#.+.$.f.R.K.d.#. ./ ^ ^ ^ ^ y 1         ",
"    2 y _ #.K.).K.b.4.q.&.#.+.+.#.&.t.K.b.t.4.4.4.4.4.,.#.#.d.!.!.K.K.!.{.~.{.d.4.%.+.+.O.O.$.x.).~.K.u.#. .) W W W 6 1         ",
"    2 6 Q ..d.~.P.P.P.{.C.&.@.+.+.+.,.b.!.R.t.#.+.+.+.+.+.$.d.K.!.K.R.K.Z.P.m.4.@.o.o.+.@.@.%.d.K.R.R.R.i.@.[ ^ W W t 1         ",
"      1 6 ) &.x.~.).).~.{.x.*.#.#.4.k.K.!.R.Z.r.$.+.+.+.,.t.,.4.m.~.R.m.4.*.*.&.+. .] @.r.r.7.,.7.m.~.R.d.#.[ y t t 3 X         ",
"        < ! ..;.m.d.d.m.R.).Z.$.$.x.!.R.R.!.!.K.4.+.+.$.x.V.,.$.d.S.{.d.%.+.o.o.o.] ) @.{.).m.&.&.m.R.Z.q.#._ t 1 2 o $         ",
"        o 3 i | #.o.| ,.^.).Z.$.$.b.!.R.R.R.!.K.5.+.4.d.K.Y.x.t.&.4.m.K.i.O.) ) ] ] o.4.~.).I.b.d.K.m.4.%.+.} y 6 < q = & $     ",
"        . 3 i [ O.} ) O.r.b.d.#.$.Z.!.!.!.R.K.k.$.+.,.Y.R.R.!.b.&.&.m.~.{.%.[ Q W } @.q.d.u.r.S.{.Z.7.@.O.o.[ ^ t 2 a k & $     ",
"    $ . 3 p [ O.O.o...} } +.$.#.$.Z.^.R.!.R.b.$. .' $.Y.!.!.R.K.m.m.K.{.{.m.;.[ y _ +.%.@. ...7.Z.4.$.+...) / ^ t 2 a k & $     ",
"    $ X 2 ( O.#.+.@.O.) ^ } +.@.$.&.4.d.d.d.%.o.) / o.x.R.R.!.Y.x.m.R.R.!.R.d.| 6 !  ... .) [ &.4.o...o.] ^ ^ W y 2 a k & $     ",
"    . . , ) O.#.+.#.o.~ y } +.#.o.]  .+.&.#...) W ^  .%.b.R.!.b.&.4.K.^.K.k.#._ 6 6 i / )  .o.#.+._ / / ^ W ^ W t 2 s > & $     ",
"    $ . 2 ( o.@.+.o. .Q 6 _ .... .) ] o.+.O.} W W ^  .@.5.d.x.q.#.@.#.2.u.4.+.) t 1 1 t / ..+.+.../ y ^ ^ ^ / Q y 2 e J ; O     ",
"    $ . 8 ( o.@.o.} / 6 6 W / / ) ..O.+.+.+.} ^ W ^ } +.#.#.#.#.+...' } +.#.+.} Q t 5 y / ..+.@.| y t W ^ ^ ^ Q t 1 r S V       ",
"    $ . q p [ } } ) ^ 6 1 6 y W ) o.+.#.+.+...] / / ) ..o.#.+.+.@.../ / }  .} _ Q t 1 5 Q ]  ..._ t 1 t W y y y t 0 S           ",
"    $ % s d t i / ^ W t 2 2 6 W ) o.+.O.+.+.+.o.] ^ ^ )  .+.+.+.+.../ ^ / / / ^ Q t 1 2 2 Q / / Q 6 1 1 1 6 1 1 9 S C C Z       ",
"    @ ; : g 9 t t y y w q < 5 y / } } _  .+.#.+.} ^ W ^ / _ } }  .] / ^ W W Q W u u e q e t t t 6 3 X 8 0 9 0 0 S     C Z       ",
"      V V Z S r 2 1 < a s w 6 W ^ ^ y t ( ..+.+.] ^ W W t t W ^ ^ ^ W W Q Q Q y 8 e l l s w 6 2 3 o O N B S B B C C C C Z       ",
"              S 9 < o l P m v u 6 y 5 1 i ' } ] ) ^ y y w q u 6 y 5 t t t t t 8 X a l P P x f j f = & - M Z       C C           ",
"                V O % z T R Y e 2 2 2 2 6 Q W ^ W Q y 4 s s e 2 6 1 2 2 t 1 2 3 % = l P T R T R Y z > $ O V   C C               ",
"                V @ $ P R R R m x d a a e t t t 6 t v n c Y m j d q o X 9 9 9 # @ % = l P T E E R Y z & O V   C C               ",
"                V @ % z T R R R P z k k a < 1 2 2 < b R R R R P l = % O V   C   V @ $ = l I T T T R c % O V                     ",
"                Z N N D L T T I c z > & * r S 9 + o c R E R I z = % - M V       C N N A D J K K K L F A N C                     ",
"                        G L Y c h l = - @ V   Z @ % z T T Y L = % O V   C C C C C                                               ",
"                        C H H G A G A N M C     M A G H J H F A N N C   C C C C C                                               ",
"                          C               C C C                       C Z C C C C C C C C Z C C C Z                             "
};
